HIERARCHY
ROOT Joint1
{
	OFFSET 0.000000 0.000000 0.000000
	CHANNELS 6 Xposition Yposition Zposition Xrotation Yrotation Zrotation
	JOINT Joint2
	{
		OFFSET -0.000000 0.000000 1.456275
		CHANNELS 6 Xposition Yposition Zposition Xrotation Yrotation Zrotation
		JOINT Joint3
		{
			OFFSET -0.000000 0.000002 1.471446
			CHANNELS 6 Xposition Yposition Zposition Xrotation Yrotation Zrotation
			JOINT Joint4
			{
				OFFSET 0.625745 0.000000 0.917755
				CHANNELS 6 Xposition Yposition Zposition Xrotation Yrotation Zrotation
				JOINT Joint5
				{
					OFFSET -0.629534 0.000001 0.940221
					CHANNELS 6 Xposition Yposition Zposition Xrotation Yrotation Zrotation
					JOINT Joint6
					{
						OFFSET -0.000001 0.113772 1.960660
						CHANNELS 6 Xposition Yposition Zposition Xrotation Yrotation Zrotation
						JOINT Joint7
						{
							OFFSET -0.669733 -0.113771 0.388340
							CHANNELS 6 Xposition Yposition Zposition Xrotation Yrotation Zrotation
							End Site
							{
								OFFSET 0.005509 0.005509 0.438980
							}
						}
					}
				}
			}
		}
	}
}
MOTION
Frames: 22
Frame Time: 0.041667
0.000000 0.000000 0.000000 -0.000000 1.019410 -67.254585 -0.000000 -0.000000 1.456275 0.000001 -20.399287 -0.000000 -0.000001 0.000002 1.471445 0.000000 -1.133458 9.419667 0.625744 0.000000 0.917755 0.000016 86.094999 0.000032 -0.629533 0.000001 0.940221 -0.000001 1.709737 31.726055 -0.000001 0.113772 1.960660 -88.303909 83.913307 -0.000002 -0.669733 -0.113771 0.388339 -1.009196 3.520013 152.344159 
0.000000 0.000000 0.000000 -0.000000 1.019410 -65.621903 -0.000000 0.000000 1.456275 -0.000000 -20.996104 0.000000 -0.000000 0.000002 1.471446 0.000000 -1.133458 9.190324 0.625745 0.000000 0.917755 0.000048 87.283001 0.000039 -0.629534 0.000001 0.940222 -0.000000 1.709734 30.955380 -0.000001 0.113772 1.960660 -88.303903 84.060456 -0.000015 -0.669734 -0.113771 0.388341 -1.002037 3.522214 151.922354 
0.000000 0.000000 0.000000 -0.000000 1.019410 -64.202685 -0.000000 0.000000 1.456275 -0.000000 -21.514891 -0.000001 -0.000000 0.000002 1.471445 0.000002 -1.133456 8.990963 0.625745 0.000000 0.917755 -0.000043 88.315664 -0.000018 -0.629534 0.000001 0.940221 0.000002 1.709736 30.285479 -0.000000 0.113772 1.960660 -88.303937 84.188365 -0.000029 -0.669734 -0.113771 0.388340 -0.995799 3.524087 151.555723 
0.000000 0.000000 0.000000 -0.000000 1.019410 -62.781125 -0.000000 -0.000000 1.456275 -0.000001 -22.034533 -0.000002 -0.000000 0.000002 1.471445 0.000002 -1.133457 8.791270 0.625745 0.000000 0.917755 0.000030 89.350042 -0.000036 -0.629534 0.000001 0.940221 -0.000000 1.709735 29.614457 -0.000001 0.113772 1.960661 -88.303937 84.316486 -0.000005 -0.669733 -0.113771 0.388340 -0.989542 3.525924 151.188505 
0.000000 0.000000 0.000000 -0.000000 1.019410 -61.141367 -0.000000 0.000000 1.456275 -0.000001 -22.633937 -0.000001 -0.000000 0.000002 1.471446 0.000000 -1.133461 8.560934 0.625745 0.000000 0.917755 -0.000352 90.543166 -0.000125 -0.629534 0.000001 0.940221 0.000001 1.709737 28.840450 -0.000001 0.113772 1.960661 -88.303896 84.464271 -0.000004 -0.669733 -0.113771 0.388339 -0.982307 3.527987 150.764883 
0.000000 0.000000 0.000000 -0.000000 1.019410 -59.151801 -0.000000 0.000000 1.456275 -0.000001 -23.361206 -0.000003 -0.000000 0.000002 1.471446 -0.000001 -1.133461 8.281452 0.625744 0.000000 0.917755 0.000002 91.990832 0.000036 -0.629534 0.000001 0.940221 -0.000001 1.709737 27.901321 -0.000000 0.113772 1.960661 -88.303923 84.643591 -0.000012 -0.669734 -0.113771 0.388340 -0.973510 3.530424 150.250898 
0.000000 0.000000 0.000000 -0.000000 1.019410 -57.017606 -0.000000 0.000000 1.456275 -0.000001 -24.141350 0.000000 -0.000000 0.000002 1.471446 0.000001 -1.133456 7.981656 0.625745 0.000000 0.917755 -0.000006 93.543737 -0.000035 -0.629533 0.000001 0.940221 -0.000003 1.709737 26.893924 -0.000001 0.113772 1.960660 -88.303903 84.835936 -0.000016 -0.669733 -0.113771 0.388340 -0.964052 3.532955 149.699565 
0.000000 0.000000 0.000000 -0.000000 1.019410 -55.028143 -0.000000 0.000000 1.456275 0.000001 -24.868587 0.000003 -0.000000 0.000002 1.471445 -0.000002 -1.133459 7.702191 0.625744 0.000000 0.917755 -0.000025 94.991334 -0.000063 -0.629534 0.000001 0.940221 -0.000003 1.709735 25.954843 -0.000001 0.113772 1.960660 -88.303930 85.015242 -0.000014 -0.669733 -0.113771 0.388340 -0.955205 3.535224 149.185607 
0.000000 0.000000 0.000000 -0.000000 1.019410 -53.388566 -0.000000 0.000000 1.456275 0.000001 -25.467921 -0.000001 -0.000000 0.000002 1.471446 -0.000001 -1.133460 7.471885 0.625745 0.000000 0.917754 -0.000011 96.184336 0.000006 -0.629534 0.000001 0.940221 -0.000002 1.709735 25.180916 -0.000000 0.113772 1.960660 -88.303937 85.163013 -0.000010 -0.669733 -0.113770 0.388340 -0.947910 3.537038 148.762039 
0.000000 0.000000 0.000000 -0.000000 1.019410 -51.967139 -0.000000 0.000000 1.456275 0.000000 -25.987516 -0.000000 -0.000000 0.000002 1.471446 -0.000001 -1.133460 7.272208 0.625745 0.000000 0.917755 0.000011 97.218611 -0.000018 -0.629533 0.000001 0.940221 -0.000003 1.709736 24.509970 -0.000001 0.113772 1.960660 -88.303937 85.291120 -0.000039 -0.669734 -0.113771 0.388340 -0.941573 3.538566 148.394821 
0.000000 0.000000 0.000000 -0.000000 1.019410 -50.547911 -0.000000 -0.000000 1.456275 0.000000 -26.506303 -0.000002 -0.000000 0.000002 1.471445 0.000000 -1.133459 7.072842 0.625745 0.000000 0.917755 0.000003 98.251294 -0.000007 -0.629534 0.000001 0.940221 -0.000001 1.709735 23.840056 -0.000000 0.113772 1.960661 -88.303923 85.419029 -0.000019 -0.669733 -0.113771 0.388339 -0.935230 3.540057 148.028163 
0.000000 0.000000 0.000000 -0.000000 1.019410 -48.914926 -0.000000 -0.000000 1.456275 -0.000001 -27.103231 0.000000 -0.000000 0.000002 1.471446 0.000001 -1.133460 6.843455 0.625744 0.000000 0.917755 0.000004 99.439508 -0.000010 -0.629534 0.000001 0.940221 -0.000004 1.709735 23.069244 -0.000001 0.113772 1.960661 -88.303923 85.566206 -0.000053 -0.669733 -0.113771 0.388340 -0.927922 3.541711 147.606303 
0.000000 0.000000 0.000000 -0.000000 1.019410 -46.934731 -0.000000 0.000000 1.456275 -0.000001 -27.827080 0.000003 -0.000000 0.000002 1.471445 0.000000 -1.133460 6.565295 0.625745 0.000000 0.917755 -0.000003 100.880357 -0.000007 -0.629534 0.000001 0.940221 -0.000001 1.709736 22.134538 -0.000001 0.113772 1.960661 -88.303944 85.744672 -0.000049 -0.669733 -0.113771 0.388340 -0.919046 3.543652 147.094735 
0.000000 0.000000 0.000000 -0.000000 1.019410 -44.803951 -0.000000 0.000000 1.456275 -0.000001 -28.605973 -0.000001 -0.000000 0.000002 1.471446 -0.000000 -1.133458 6.265979 0.625745 0.000000 0.917755 -0.000029 102.430776 -0.000005 -0.629534 0.000001 0.940221 -0.000003 1.709735 21.128750 -0.000001 0.113772 1.960660 -88.303937 85.936709 -0.000052 -0.669733 -0.113771 0.388339 -0.909475 3.545651 146.544263 
0.000000 0.000000 0.000000 -0.000000 1.019410 -42.801701 -0.000000 -0.000000 1.456275 0.000001 -29.337879 -0.000001 -0.000000 0.000002 1.471445 0.000000 -1.133459 5.984718 0.625744 0.000000 0.917755 -0.000007 103.887676 -0.000009 -0.629534 0.000001 0.940221 -0.000004 1.709738 20.183636 -0.000001 0.113772 1.960660 -88.303944 86.117170 -0.000029 -0.669733 -0.113771 0.388340 -0.900465 3.547444 146.026999 
0.000000 0.000000 0.000000 -0.000000 1.019410 -41.129422 -0.000000 -0.000000 1.456275 -0.000000 -29.949174 0.000002 -0.000000 0.000002 1.471446 0.000000 -1.133461 5.749812 0.625745 0.000000 0.917755 0.000001 105.104474 -0.000011 -0.629534 0.000001 0.940221 -0.000000 1.709736 19.394274 -0.000000 0.113772 1.960661 -88.303896 86.267885 -0.000027 -0.669733 -0.113771 0.388341 -0.892926 3.548880 145.594962 
0.000000 0.000000 0.000000 -0.000000 1.019410 -39.677791 -0.000000 0.000000 1.456275 0.000001 -30.479808 0.000002 -0.000000 0.000002 1.471446 0.000001 -1.133461 5.545898 0.625744 0.000000 0.917755 -0.000009 106.160729 -0.000003 -0.629534 0.000001 0.940221 -0.000003 1.709737 18.709068 -0.000001 0.113772 1.960661 -88.303957 86.398717 -0.000041 -0.669733 -0.113771 0.388340 -0.886377 3.550081 145.219944 
0.000000 0.000000 0.000000 -0.000000 1.019410 -38.259813 -0.000000 0.000000 1.456275 -0.000000 -30.998141 -0.000002 -0.000000 0.000002 1.471445 0.000002 -1.133457 5.346712 0.625745 0.000000 0.917755 -0.000001 107.192490 -0.000003 -0.629534 0.000001 0.940221 -0.000001 1.709736 18.039745 -0.000001 0.113772 1.960660 -88.303964 86.526523 -0.000032 -0.669733 -0.113772 0.388340 -0.879970 3.551215 144.853614 
0.000000 0.000000 0.000000 -0.000000 1.019410 -36.688481 -0.000000 0.000000 1.456275 0.000003 -31.572532 -0.000001 -0.000000 0.000002 1.471446 -0.000003 -1.133455 5.125984 0.625744 0.000000 0.917755 -0.000001 108.335837 -0.000015 -0.629534 0.000001 0.940221 -0.000000 1.709737 17.298033 -0.000000 0.113772 1.960660 -88.303950 86.668141 -0.000037 -0.669733 -0.113771 0.388340 -0.872861 3.552422 144.447668 
0.000000 0.000000 0.000000 -0.000000 1.019410 -34.828303 -0.000000 0.000000 1.456275 0.000001 -32.252502 -0.000000 -0.000000 0.000002 1.471446 -0.000001 -1.133463 4.864683 0.625744 0.000000 0.917755 0.000014 109.689362 -0.000010 -0.629534 0.000001 0.940221 -0.000003 1.709737 16.419983 -0.000001 0.113772 1.960660 -88.303950 86.835794 -0.000035 -0.669733 -0.113771 0.388340 -0.864435 3.553785 143.967096 
0.000000 0.000000 0.000000 -0.000000 1.019410 -32.749869 -0.000000 0.000000 1.456275 0.000002 -33.012268 0.000002 -0.000001 0.000002 1.471445 0.000000 -1.133462 4.572716 0.625745 0.000000 0.917755 0.000011 111.201695 -0.000009 -0.629534 0.000001 0.940221 0.000001 1.709737 15.438905 -0.000001 0.113772 1.960661 -88.303985 87.023112 -0.000046 -0.669733 -0.113771 0.388340 -0.855007 3.555223 143.430148 
0.000000 0.000000 0.000000 -0.000000 1.019410 -30.575256 -0.000000 -0.000000 1.456275 -0.000001 -33.807176 0.000001 -0.000000 0.000002 1.471446 -0.000001 -1.133458 4.267247 0.625745 0.000000 0.917755 0.000004 112.784011 -0.000001 -0.629533 0.000001 0.940221 0.000001 1.709737 14.412430 -0.000001 0.113772 1.960660 -88.303971 87.219105 -0.000080 -0.669733 -0.113771 0.388339 -0.845129 3.556635 142.868337 
